<svg viewBox="0 0 24 24" xmlns="http://www.w3.org/2000/svg">
  <path d="M12 15.5A3.5 3.5 0 1 0 12 8a3.5 3.5 0 0 0 0 7.5Z" fill="none" stroke="currentColor" stroke-width="2"/>
  <path d="M19.4 15a1.7 1.7 0 0 0 .34 1.87l.05.05a2 2 0 1 1-2.83 2.83l-.05-.05A1.7 1.7 0 0 0 15 19.36a1.7 1.7 0 0 0-1 1.55V21a2 2 0 1 1-4 0v-.09a1.7 1.7 0 0 0-1-1.55 1.7 1.7 0 0 0-1.87.34l-.05.05a2 2 0 1 1-2.83-2.83l.05-.05A1.7 1.7 0 0 0 4.64 15a1.7 1.7 0 0 0-1.55-1H3a2 2 0 1 1 0-4h.09a1.7 1.7 0 0 0 1.55-1 1.7 1.7 0 0 0-.34-1.87l-.05-.05a2 2 0 1 1 2.83-2.83l.05.05A1.7 1.7 0 0 0 9 4.64a1.7 1.7 0 0 0 1-1.55V3a2 2 0 1 1 4 0v.09a1.7 1.7 0 0 0 1 1.55 1.7 1.7 0 0 0 1.87-.34l.05-.05a2 2 0 1 1 2.83 2.83l-.05.05A1.7 1.7 0 0 0 19.36 9c.21.61.81 1 1.55 1H21a2 2 0 1 1 0 4h-.09a1.7 1.7 0 0 0-1.51 1Z" fill="none" stroke="currentColor" stroke-width="2" stroke-linejoin="round"/>
</svg>
